<svg xmlns="http://www.w3.org/2000/svg" width="210.734" height="28.11" viewBox="0 0 210.734 28.11"><g id="Grupo_915" data-name="Grupo 915" transform="translate(-601 -9419.769)"><path id="Trazado_2433" data-name="Trazado 2433" d="M446.289,35.135a12.535,12.535,0,0,1-3.765,2.38,10.953,10.953,0,0,1-4.166.821,7.281,7.281,0,0,1-5.067-1.746,5.864,5.864,0,0,1-1.916-4.546,5.981,5.981,0,0,1,2.544-5.154,12.229,12.229,0,0,1,7.2-1.833,18.107,18.107,0,0,1,2.46.17,19.241,19.241,0,0,1,2.547.484v-.147a4.876,4.876,0,0,0-1.158-3.578,4.9,4.9,0,0,0-3.6-1.155,9.269,9.269,0,0,0-3.662.881,8.9,8.9,0,0,1-2.674.885,1.263,1.263,0,0,1-1.008-.484,2,2,0,0,1-.4-1.282q0-1.242,2.313-2.106a17.45,17.45,0,0,1,5.955-.861,7.589,7.589,0,0,1,5.595,1.893,7.477,7.477,0,0,1,1.9,5.555v9.53h1.028a4.249,4.249,0,0,1,2,.317,1.237,1.237,0,0,1,.5,1.138,1.442,1.442,0,0,1-.424,1.135,1.844,1.844,0,0,1-1.262.377h-3.3a1.345,1.345,0,0,1-.968-.357,1.837,1.837,0,0,1-.5-1.031Zm-.167-6.626a13.846,13.846,0,0,0-2.25-.547,12.3,12.3,0,0,0-2.146-.19,10.128,10.128,0,0,0-5.114,1.095,3.31,3.31,0,0,0-1.873,2.944,2.9,2.9,0,0,0,1.158,2.36,4.7,4.7,0,0,0,2.988.925,9.321,9.321,0,0,0,4.944-1.389c1.529-.941,2.293-1.913,2.293-2.928Z" transform="translate(169.625 9409.542)" fill="#fff"></path><path id="Trazado_2434" data-name="Trazado 2434" d="M446.874,34.842h6.983a1.7,1.7,0,0,1,1.2.357,1.35,1.35,0,0,1,.4,1.095,1.547,1.547,0,0,1-.377,1.2,2.1,2.1,0,0,1-1.345.317h-13.76a1.811,1.811,0,0,1-1.242-.377,1.46,1.46,0,0,1-.421-1.138,1.362,1.362,0,0,1,.421-1.095,2.117,2.117,0,0,1,1.345-.357h3.662V21.356h-1.432a6.144,6.144,0,0,1-2.544-.314,1.343,1.343,0,0,1-.507-1.2,1.4,1.4,0,0,1,.4-1.095,1.828,1.828,0,0,1,1.262-.377h4.8a1.367,1.367,0,0,1,.861.23.717.717,0,0,1,.3.631v3.578a14.681,14.681,0,0,1,4.166-3.725,9.352,9.352,0,0,1,4.67-1.218,5.412,5.412,0,0,1,3.028.758,2.256,2.256,0,0,1,1.158,1.956,1.957,1.957,0,0,1-.588,1.389,1.728,1.728,0,0,1-1.262.587,4.232,4.232,0,0,1-1.642-.631,4.251,4.251,0,0,0-2.039-.654,6.456,6.456,0,0,0-3.472,1.182,19.7,19.7,0,0,0-4.019,3.682Z" transform="translate(185.845 9409.542)" fill="#fff"></path><path id="Trazado_2435" data-name="Trazado 2435" d="M462.087,23.409a2.482,2.482,0,0,1,1.5.357,1.327,1.327,0,0,1,.481,1.138,1.391,1.391,0,0,1-.441,1.115,2.078,2.078,0,0,1-1.325.357h-8.522V33.4q0,3.455.885,4.546a3.786,3.786,0,0,0,3.074,1.095,12.254,12.254,0,0,0,4.583-1.115,13.459,13.459,0,0,1,3.3-1.115,1.313,1.313,0,0,1,.988.421,1.4,1.4,0,0,1,.421,1.031,1.667,1.667,0,0,1-.524,1.218,5.188,5.188,0,0,1-1.746.991,25.861,25.861,0,0,1-3.725,1.2,13.732,13.732,0,0,1-3.091.381,9.818,9.818,0,0,1-4.146-.781,5.338,5.338,0,0,1-2.483-2.357,5.567,5.567,0,0,1-.611-1.746,21.134,21.134,0,0,1-.167-3.114V26.376h-3.578a1.984,1.984,0,0,1-1.282-.337,1.448,1.448,0,0,1-.4-1.135,1.249,1.249,0,0,1,.544-1.182,5.571,5.571,0,0,1,2.337-.314h2.377V17.981a1.952,1.952,0,0,1,.377-1.325,1.56,1.56,0,0,1,1.222-.444,1.437,1.437,0,0,1,1.282.527,5.008,5.008,0,0,1,.357,2.4v4.273Z" transform="translate(202.136 9405.68)" fill="#fff"></path><path id="Trazado_2436" data-name="Trazado 2436" d="M456.236,26.286h13.693a6.039,6.039,0,0,0-2.1-4.016,6.428,6.428,0,0,0-4.356-1.539,7.479,7.479,0,0,0-4.71,1.475,6.958,6.958,0,0,0-2.527,4.079m-.1,2.757a6.462,6.462,0,0,0,2.039,4.693,7.609,7.609,0,0,0,5.154,1.639,13.175,13.175,0,0,0,5.364-1.305,14.405,14.405,0,0,1,3.512-1.325,1.459,1.459,0,0,1,1.052.4,1.308,1.308,0,0,1,.427.991,1.684,1.684,0,0,1-.444,1.115,4.665,4.665,0,0,1-1.409.988,21.575,21.575,0,0,1-4.359,1.579,18.745,18.745,0,0,1-4.436.547,10.636,10.636,0,0,1-7.678-2.757,9.724,9.724,0,0,1-2.887-7.344,9.885,9.885,0,0,1,3.054-7.534,11.111,11.111,0,0,1,7.951-2.881,10.453,10.453,0,0,1,7.364,2.694,8.552,8.552,0,0,1,2.921,6.523,1.929,1.929,0,0,1-.5,1.576,5.184,5.184,0,0,1-2.667.4H456.132Z" transform="translate(218.94 9409.512)" fill="#fff"></path><path id="Trazado_2437" data-name="Trazado 2437" d="M475.553,40.151a1.976,1.976,0,0,1,1.305.377,1.368,1.368,0,0,1,.461,1.118,1.412,1.412,0,0,1-.44,1.135,1.8,1.8,0,0,1-1.242.381H461.877a2.035,2.035,0,0,1-1.325-.381,1.412,1.412,0,0,1-.441-1.135,1.433,1.433,0,0,1,.421-1.118,1.892,1.892,0,0,1,1.262-.377h3.575V27.3H461.92a2.057,2.057,0,0,1-1.349-.4,1.422,1.422,0,0,1-.461-1.135,1.407,1.407,0,0,1,.441-1.135,1.914,1.914,0,0,1,1.282-.381h3.325V22.816q0-3.81,2.167-5.515,2.168-1.722,7.01-1.726a8.57,8.57,0,0,1,3.468.527,1.727,1.727,0,0,1,1.138,1.639,1.365,1.365,0,0,1-.484,1.075,1.828,1.828,0,0,1-1.242.421,15.145,15.145,0,0,1-1.829-.25,14.351,14.351,0,0,0-2.463-.254,4.77,4.77,0,0,0-3.408,1.008,4.443,4.443,0,0,0-1.031,3.3v1.2h7.447a1.951,1.951,0,0,1,1.305.381,1.378,1.378,0,0,1,.464,1.135,1.461,1.461,0,0,1-.464,1.135,1.869,1.869,0,0,1-1.262.4h-7.28V40.151Z" transform="translate(236.813 9404.192)" fill="#fff"></path><path id="Trazado_2438" data-name="Trazado 2438" d="M481.791,35.135a12.533,12.533,0,0,1-3.765,2.38,10.953,10.953,0,0,1-4.166.821,7.281,7.281,0,0,1-5.067-1.746,5.864,5.864,0,0,1-1.916-4.546,5.976,5.976,0,0,1,2.547-5.154,12.211,12.211,0,0,1,7.194-1.833,18.073,18.073,0,0,1,2.46.17,19.242,19.242,0,0,1,2.547.484v-.147a4.862,4.862,0,0,0-1.158-3.578,4.9,4.9,0,0,0-3.6-1.155,9.282,9.282,0,0,0-3.662.881,8.921,8.921,0,0,1-2.671.885,1.264,1.264,0,0,1-1.011-.484,2,2,0,0,1-.4-1.282q0-1.242,2.317-2.106a17.417,17.417,0,0,1,5.952-.861,7.592,7.592,0,0,1,5.6,1.893,7.489,7.489,0,0,1,1.893,5.555v9.53h1.032a4.24,4.24,0,0,1,2,.317,1.238,1.238,0,0,1,.5,1.138A1.442,1.442,0,0,1,488,37.432a1.844,1.844,0,0,1-1.262.377h-3.3a1.351,1.351,0,0,1-.968-.357,1.838,1.838,0,0,1-.5-1.031Zm-.167-6.626a13.852,13.852,0,0,0-2.25-.547,12.274,12.274,0,0,0-2.146-.19,10.127,10.127,0,0,0-5.114,1.095,3.31,3.31,0,0,0-1.873,2.944,2.9,2.9,0,0,0,1.158,2.36,4.706,4.706,0,0,0,2.988.925,9.321,9.321,0,0,0,4.944-1.389c1.529-.941,2.293-1.913,2.293-2.928Z" transform="translate(252.632 9409.542)" fill="#fff"></path><path id="Trazado_2439" data-name="Trazado 2439" d="M490.962,19.63v-.083a1.209,1.209,0,0,1,.4-1.011A1.91,1.91,0,0,1,492.6,18.2a1.279,1.279,0,0,1,1.178.5,4.253,4.253,0,0,1,.334,2.083V24.7a1.607,1.607,0,0,1-.4,1.178,1.685,1.685,0,0,1-1.2.377,1.6,1.6,0,0,1-.988-.314,5.441,5.441,0,0,1-.988-1.369,7.15,7.15,0,0,0-2.46-2.567,6.176,6.176,0,0,0-3.3-.881,7.5,7.5,0,0,0-5.344,1.933,6.6,6.6,0,0,0-2.039,5.007,7.028,7.028,0,0,0,1.956,5.134,6.852,6.852,0,0,0,5.071,1.979,9.246,9.246,0,0,0,2.674-.381,8.865,8.865,0,0,0,2.417-1.178c.267-.167.624-.427,1.075-.778a3.96,3.96,0,0,1,2.146-1.115A1.438,1.438,0,0,1,494.2,33.2q0,1.662-3.158,3.412a13.643,13.643,0,0,1-6.669,1.726,10.559,10.559,0,0,1-7.614-2.928,9.731,9.731,0,0,1-3.031-7.3,9.731,9.731,0,0,1,3.031-7.3,10.431,10.431,0,0,1,7.574-2.944,12.008,12.008,0,0,1,3.2.441,17.793,17.793,0,0,1,3.428,1.325" transform="translate(268.657 9409.542)" fill="#fff"></path><path id="Trazado_2440" data-name="Trazado 2440" d="M497.589,23.409a2.482,2.482,0,0,1,1.5.357,1.328,1.328,0,0,1,.481,1.138,1.392,1.392,0,0,1-.441,1.115,2.079,2.079,0,0,1-1.325.357h-8.522V33.4q0,3.455.885,4.546a3.783,3.783,0,0,0,3.071,1.095,12.268,12.268,0,0,0,4.587-1.115,13.415,13.415,0,0,1,3.3-1.115,1.312,1.312,0,0,1,.988.421,1.4,1.4,0,0,1,.421,1.031,1.667,1.667,0,0,1-.524,1.218,5.176,5.176,0,0,1-1.749.991,25.7,25.7,0,0,1-3.722,1.2,13.731,13.731,0,0,1-3.091.381,9.818,9.818,0,0,1-4.146-.781,5.339,5.339,0,0,1-2.484-2.357,5.575,5.575,0,0,1-.611-1.746,21.112,21.112,0,0,1-.167-3.114V26.376h-3.578a1.984,1.984,0,0,1-1.282-.337,1.448,1.448,0,0,1-.4-1.135,1.248,1.248,0,0,1,.544-1.182,5.558,5.558,0,0,1,2.337-.314h2.377V17.981a1.951,1.951,0,0,1,.377-1.325,1.56,1.56,0,0,1,1.222-.444,1.437,1.437,0,0,1,1.282.527,5.01,5.01,0,0,1,.357,2.4v4.273Z" transform="translate(285.144 9405.68)" fill="#fff"></path><path id="Trazado_2441" data-name="Trazado 2441" d="M509.962,28.081a9.6,9.6,0,0,1-3.071,7.364,12.5,12.5,0,0,1-15.923,0,9.606,9.606,0,0,1-3.074-7.364,9.548,9.548,0,0,1,3.074-7.344,12.481,12.481,0,0,1,15.9,0,9.556,9.556,0,0,1,3.091,7.344m-11.043,7.28a7.212,7.212,0,0,0,5.3-2.043,7.055,7.055,0,0,0,2.083-5.237,7.055,7.055,0,0,0-2.083-5.237,7.791,7.791,0,0,0-10.605,0,7.1,7.1,0,0,0-2.06,5.237,7.054,7.054,0,0,0,2.06,5.237,7.22,7.22,0,0,0,5.3,2.043" transform="translate(301.772 9409.57)" fill="#fff"></path></g></svg>